<?xml version="1.0" standalone="no"?><!DOCTYPE svg PUBLIC "-//W3C//DTD SVG 1.1//EN" "http://www.w3.org/Graphics/SVG/1.1/DTD/svg11.dtd"><svg class="icon" width="180px" height="180.00px" viewBox="0 0 1024 1024" version="1.1" xmlns="http://www.w3.org/2000/svg"><path d="M704 128H320a64.192 64.192 0 0 0-64 64v682.026667l242.986667-186.88a21.141333 21.141333 0 0 1 26.026666 0L768 874.026667V192a64.192 64.192 0 0 0-64-64z m-85.333333 298.666667H405.333333a21.333333 21.333333 0 0 1 0-42.666667h213.333334a21.333333 21.333333 0 0 1 0 42.666667z" fill="#42A5F5" /><path d="M704 85.333333H320a106.709333 106.709333 0 0 0-106.666667 106.666667v725.333333a21.589333 21.589333 0 0 0 11.946667 19.2 20.906667 20.906667 0 0 0 22.4-2.346666L512 730.88l264.32 203.306667a21.376 21.376 0 0 0 22.4 2.346666A21.589333 21.589333 0 0 0 810.666667 917.333333V192a106.709333 106.709333 0 0 0-106.666667-106.666667z m64 788.693334l-242.986667-186.88a21.141333 21.141333 0 0 0-26.026666 0L256 874.026667V192a64.192 64.192 0 0 1 64-64h384a64.192 64.192 0 0 1 64 64z" fill="#1976D2" /><path d="M618.666667 384H405.333333a21.333333 21.333333 0 0 0 0 42.666667h213.333334a21.333333 21.333333 0 0 0 0-42.666667z" fill="#1976D2" /></svg>