<?xml version="1.0" standalone="no"?><!DOCTYPE svg PUBLIC "-//W3C//DTD SVG 1.1//EN" "http://www.w3.org/Graphics/SVG/1.1/DTD/svg11.dtd"><svg class="icon" width="200px" height="200.00px" viewBox="0 0 1024 1024" version="1.1" xmlns="http://www.w3.org/2000/svg"><path d="M547.22248202 231.22113624a42.17917863 42.17917863 0 0 0-16.14396766 19.99605463 49.11214631 49.11214631 0 0 0 1.28930293 32.25629471 53.49419366 53.49419366 0 0 0 19.05478544 27.19004742 34.85467444 34.85467444 0 0 0 15.57445882 6.03124694 28.38838666 28.38838666 0 0 0 16.36148769-2.84358451 31.57604908 31.57604908 0 0 0 13.57327117-14.83093503 54.72021767 54.72021767 0 0 0 4.47301028-19.92486633 67.30476025 67.30476025 0 0 0-3.2351218-25.80187216 43.33005924 43.33005924 0 0 0-16.7134742-22.24640216 32.63992183 32.63992183 0 0 0-13.19755497-4.94364527 28.1550471 28.1550471 0 0 0-13.98853816 1.55823744 34.99705107 34.99705107 0 0 0-7.09511893 3.8797725" fill="#FFFFFF" /><path d="M791.30407616 580.74869979a361.83526224 361.83526224 0 0 0-20.34408838-70.74158178 202.95046794 202.95046794 0 0 0-25.26004809-47.80306952c-10.63081432-14.13882494-24.02611471-26.05103127-34.43545314-40.36387269-5.48546857-7.41546713-10.13249455-15.72079131-15.84339332-23.06111504a653.85834824 653.85834824 0 0 1-6.79850044-14.38402898c-6.86573445-14.95353704-13.10263696-30.27883676-21.25767357-44.49280509a142.99789668 142.99789668 0 0 0-3.97864559-6.59679994c-1.03618798-13.69191889-2.47182264-27.36406391-3.21534643-41.07971171a386.49811827 386.49811827 0 0 0-6.89341844-82.06450696 133.59310636 133.59310636 0 0 0-16.31402909-36.63043113 125.67141007 125.67141007 0 0 0-31.88453204-34.36031052 123.06512019 123.06512019 0 0 0-70.59525006-22.61420898 110.433119 110.433119 0 0 0-53.51396827 12.35911239A96.36548239 96.36548239 0 0 0 440.75614339 170.78606474a138.6672638 138.6672638 0 0 0-12.80206261 56.99824919c-0.64465147 19.28021561 1.13901616 38.56043046 1.85485516 57.86437578 0.74352457 20.04351402 0.34407788 40.16612651 2.00118766 60.16218192 0.5418233 6.45046823 1.28534786 12.87720678 1.25766308 19.35535824 0 3.21534642-0.19774618 6.47419717-0.24915911 9.68954436l-0.24915987 0.69211008a410.87622024 410.87622024 0 0 1-28.9183455 42.68540855 1866.28529877 1866.28529877 0 0 1-22.24640293 27.75955473 167.83081409 167.83081409 0 0 0-24.39392152 35.96600581 256.86388289 256.86388289 0 0 0-10.62685924 34.79930565l-0.27288881 0.98872937a270.40947007 270.40947007 0 0 1-15.4004431 39.54915982c-0.56950808 1.19042985-1.16274507 2.47182264-1.73225316 3.55942431a699.46643901 699.46643901 0 0 1-11.56812921 22.71308208l-4.62329707 8.67708606a140.80291868 140.80291868 0 0 0-7.73581533 16.11232781c-1.29721232 3.31421951-2.25430183 6.75104182-2.86731422 10.25905166a54.22585298 54.22585298 0 0 0 1.38422095 22.24640216c0.47063498 1.82717116 1.01245829 3.60688371 1.63338006 5.38659624a116.70561567 116.70561567 0 0 0 6.72335703 15.52304513c1.18647477 2.29780614 2.47182264 4.57188261 3.68202711 6.82223013l1.11133138 1.62942498c1.23788847 2.14356427 2.50346171 4.26339964 3.80462911 6.35555023l0.15028679 0.24915988c1.49891281 2.37294954 3.04924009 4.70239478 4.647026 6.99229076l0.22543019 0.32430327c1.6491996 2.28594169 3.29444489 4.53628844 4.94364527 6.74313166a178.83339031 178.83339031 0 0 0 33.96086307 67.65279322c-2.47182264 4.32667779-4.7221694 8.70081499-7.21772171 12.97212401a196.29829923 196.29829923 0 0 0-21.45146391 40.58930288 48.79575319 48.79575319 0 0 0-1.63338006 22.74076684 32.6280566 32.6280566 0 0 0 11.22009625 19.54914934 33.99250294 33.99250294 0 0 0 13.56931686 6.27645176c4.91991557 1.05991768 9.95056869 1.49891281 14.97726675 1.31303185a243.82847994 243.82847994 0 0 0 56.03324952-11.05003484 624.32699034 624.32699034 0 0 1 33.04332282-7.71208639 196.91526669 196.91526669 0 0 1 35.12360894-4.7933577c2.91477284 0 5.83350077 0 8.72454469-0.29661928 8.02847952 0.89776566 16.1202372 1.19042985 24.1961761 0.88985626l2.96618654-0.1700614c2.10006074 0.24915987 4.20407579 0.37176189 6.30413653 0.49436469 14.19023863 0.8107578 28.37652219 2.19893306 42.41647327 4.32667779 12.37493194 1.86276533 24.63912632 4.28317426 36.80840346 7.26518111a281.10751762 281.10751762 0 0 0 57.58753112 11.05003484 62.550951 62.550951 0 0 0 15.38066849-1.21415877 34.13883465 34.13883465 0 0 0 13.93316859-6.37532484 32.67156092 32.67156092 0 0 0 11.24778103-19.57683412 48.6454664 48.6454664 0 0 0-1.67688438-22.78822623 188.9105161 188.9105161 0 0 0-21.85091057-40.45878994c-3.11251902-5.24421884-6.00751725-10.60708463-9.09630658-15.81966361a280.51032554 280.51032554 0 0 0 34.82698967-48.36862252 47.47876626 47.47876626 0 0 0 17.59937615-2.22661785 73.78291248 73.78291248 0 0 0 37.07338288-27.80701412 42.37296973 42.37296973 0 0 0 6.20526267-12.68341566 84.01823522 84.01823522 0 0 0 11.86079342-30.20369337 151.08174497 151.08174497 0 0 0-1.31698695-53.71566876z" fill="#020204" /><path d="M461.94658373 338.19765832a30.65455372 30.65455372 0 0 0-5.51315335 11.63931753 61.70064397 61.70064397 0 0 0-1.60569606 12.85347708A113.68801465 113.68801465 0 0 1 452.67626066 388.44486569a79.22883182 79.22883182 0 0 1-13.32411208 24.20013044 146.83021056 146.83021056 0 0 0-23.31027491 41.81928195 74.19422362 74.19422362 0 0 0-2.69329774 28.82342749 305.01893969 305.01893969 0 0 0-26.84201445 48.51890932 265.23643954 265.23643954 0 0 0-21.82718164 80.87407633 206.45452349 206.45452349 0 0 0 14.53431652 100.89781652 165.31548791 165.31548791 0 0 0 43.05716967 59.98816544 147.33643971 147.33643971 0 0 0 31.46531153 20.88591167 141.04021333 141.04021333 0 0 0 126.37934049-1.23788925 245.71101988 245.71101988 0 0 0 53.63657028-42.39274435 186.82627568 186.82627568 0 0 0 27.19004743-30.89975852 173.38351591 173.38351591 0 0 0 22.71308207-75.43606717 246.0788267 246.0788267 0 0 0-14.50663176-136.36154749 150.51223689 150.51223689 0 0 0-27.19004743-39.07852483 214.14683528 214.14683528 0 0 0-17.30275688-58.18472397c-6.13012003-13.29642729-13.59700087-25.97588788-19.28021562-39.54915983-2.32549093-5.53688227-4.35040749-11.22009624-6.94483214-16.63437648a49.88335488 49.88335488 0 0 0-10.13644964-14.83093504 41.76391241 41.76391241 0 0 0-15.84339332-9.19517967 68.96582508 68.96582508 0 0 0-18.14515455-3.11647333c-12.3591124-0.61696669-24.7182248 0.98872937-36.92705039 0.4943639-9.88728976-0.39549158-19.54914935-2.10006074-29.33756679-1.53055188a45.22446442 45.22446442 0 0 0-14.33657035 3.01364594 28.88275133 28.88275133 0 0 0-11.7896051 8.52679849m3.98655576-106.81832513a19.98419017 19.98419017 0 0 0-12.3591124 5.51315256 27.8861126 27.8861126 0 0 0-7.19003771 11.61954293 70.34213588 70.34213588 0 0 0-1.60569529 27.38779359c0.16610632 8.34487264 1.62547068 16.61855696 4.32667781 24.52047862a32.01108991 32.01108991 0 0 0 6.64821364 10.48052753 22.88314347 22.88314347 0 0 0 10.62685924 6.27645176 21.49496822 21.49496822 0 0 0 11.56812922-0.4192213 25.0820773 25.0820773 0 0 0 9.88728977-6.03124695 33.32016668 33.32016668 0 0 0 8.40419648-14.68064823c1.4791382-5.51710765 2.1356549-11.22009624 1.95372825-16.930995a70.59525007 70.59525007 0 0 0-3.26280503-21.05992739 47.41944239 47.41944239 0 0 0-10.77714604-18.29148625 30.52008648 30.52008648 0 0 0-8.2539097-6.18153373 20.34013252 20.34013252 0 0 0-10.00989255-2.19893383m81.36448671-0.00395431a42.17917863 42.17917863 0 0 0-16.14396766 19.99605463 49.11214631 49.11214631 0 0 0 1.28930293 32.25629471 53.49419366 53.49419366 0 0 0 19.05478544 27.19004742 34.85467444 34.85467444 0 0 0 15.57445882 6.03124695 28.38838666 28.38838666 0 0 0 16.36148769-2.84358452 31.57604908 31.57604908 0 0 0 13.57327117-14.83093503 54.72021767 54.72021767 0 0 0 4.47301028-19.92486632 67.30476025 67.30476025 0 0 0-3.23512181-25.80187217 43.33005924 43.33005924 0 0 0-16.7134742-22.24640216 32.63992183 32.63992183 0 0 0-13.19755497-4.94364526 28.1550471 28.1550471 0 0 0-13.98853815 1.55823743 34.99705107 34.99705107 0 0 0-7.09511893 3.87977251" fill="#FFFFFF" /><path d="M563.78566943 252.87430062a16.61855696 16.61855696 0 0 0-7.61716762 2.47182265 20.02769449 20.02769449 0 0 0-5.78208706 5.63575535 29.0884069 29.0884069 0 0 0-4.62329707 15.32529971 32.36307717 32.36307717 0 0 0 1.62942575 11.98734973 22.66166837 22.66166837 0 0 0 6.75104103 9.88729054 19.49773564 19.49773564 0 0 0 11.41784244 4.4492798 19.12597375 19.12597375 0 0 0 11.76587539-3.36167813 21.09947662 21.09947662 0 0 0 6.47815224-7.4154679c1.54241712-2.9464127 2.53905588-6.14198451 2.94245762-9.44433877a29.13191122 29.13191122 0 0 0-2.76844113-17.05359779 23.87582792 23.87582792 0 0 0-12.70714537-11.49298582 17.96322867 17.96322867 0 0 0-7.41546713-1.16274509" fill="#020204" /><path d="M465.90149962 231.22113624a19.98419017 19.98419017 0 0 0-12.3591124 5.51315256 27.8861126 27.8861126 0 0 0-7.19003771 11.61954293 70.34213588 70.34213588 0 0 0-1.60569528 27.38779359c0.16610632 8.34487264 1.62547068 16.61855696 4.3266778 24.52047861a32.01108991 32.01108991 0 0 0 6.64821364 10.48052754 22.88314347 22.88314347 0 0 0 10.62685924 6.27645176 21.49496822 21.49496822 0 0 0 11.56812922-0.4192213 25.0820773 25.0820773 0 0 0 9.88728977-6.03124695 33.32016668 33.32016668 0 0 0 8.40419648-14.68064824c1.4791382-5.51710765 2.1356549-11.22009624 1.95372825-16.93099499a70.59525007 70.59525007 0 0 0-3.26280503-21.05992739 47.41944239 47.41944239 0 0 0-10.77714604-18.29148626 30.52008648 30.52008648 0 0 0-8.2539097-6.18153373 20.34013252 20.34013252 0 0 0-10.00989255-2.19893383" fill="#FFFFFF" /><path d="M454.8040054 269.28324694a34.70438765 34.70438765 0 0 0 0.98872859 17.30275765c1.35653618 3.67411695 3.4407766 7.03975014 6.13012003 9.88728977 1.68479453 1.91022472 3.71366617 3.48823599 5.98378756 4.64702678a11.11331377 11.11331377 0 0 0 7.4154679 0.93731488 10.93534298 10.93534298 0 0 0 5.73462768-3.85604281c1.42772449-1.87067548 2.49159725-3.99051007 3.1402038-6.25272283a34.75975642 34.75975642 0 0 0-0.32430327-20.43900561 26.6284495 26.6284495 0 0 0-7.8109595-12.70318952 15.46372127 15.46372127 0 0 0-6.32786545-3.3102652 11.03421531 11.03421531 0 0 0-7.17026232 0.56950807c-2.41249878 1.19833924-4.36227195 3.16393272-5.53688227 5.58829597a25.44592904 25.44592904 0 0 0-2.29780614 7.63694301" fill="#020204" /><path d="M444.00312967 341.33390627c0.15819695 0.76725348 0.43899591 1.50286789 0.83844257 2.17520413 0.74747887 1.16274507 1.73225315 2.15542951 2.89104315 2.91477285 1.08760169 0.79098318 2.25034753 1.43167957 3.38540782 2.15147444a61.20627928 61.20627928 0 0 1 15.30157001 14.83093502 96.05699942 96.05699942 0 0 0 18.83331034 21.38027559 39.707356 39.707356 0 0 0 18.83330955 6.74708673 61.62945565 61.62945565 0 0 0 23.43287693-2.72098251 82.78430106 82.78430106 0 0 0 20.0949285-8.82341701 209.96648918 209.96648918 0 0 1 34.87444905-22.86336962c2.86731423-1.03618798 5.83350077-1.80344146 8.5782122-3.08878933a13.50603793 13.50603793 0 0 0 6.67194334-5.97983325 28.73641963 28.73641963 0 0 0 1.63338084-8.5782122c0.44295022-3.08878933 1.43167957-6.10243526 1.97745795-9.16749568a15.43208219 15.43208219 0 0 0-0.71583978-9.22286367 11.92011649 11.92011649 0 0 0-5.41428027-5.38659548 18.5248266 18.5248266 0 0 0-7.41546712-1.85485593 110.53990148 110.53990148 0 0 0-15.44790172 1.53450774c-6.84200475 0.61696669-13.71960366-0.24915987-20.58929318 0-8.5228442 0.24915987-16.95472469 2.17520414-25.4815232 2.47182263-9.73700297 0.47063498-19.45027702-1.04014306-29.19123508-1.43563465a60.27687456 60.27687456 0 0 0-12.63200119 0.593237 29.17936984 29.17936984 0 0 0-11.7144617 4.52442398 112.28401909 112.28401909 0 0 0-9.19517967 8.20645108 23.40519292 23.40519292 0 0 1-5.06624729 3.48428092 13.09077172 13.09077172 0 0 1-5.95610354 1.40794988 9.64999512 9.64999512 0 0 0-3.16393274 0 4.27921918 4.27921918 0 0 0-1.65315467 1.03618798 9.61044588 9.61044588 0 0 0-1.23788847 1.55823666 27.15840834 27.15840834 0 0 0-2.25034753 4.0300593" fill="#D99A03" /><path d="M465.45854863 319.78356927a150.54387673 150.54387673 0 0 0-10.06130624 6.62448396 12.38679717 12.38679717 0 0 0-4.3266778 4.37413719 10.27882628 10.27882628 0 0 0-0.79098318 4.2989938c0.08305355 1.46727373 0.08305355 2.93454746 0 4.39786689-0.12260201 0.98872937-0.39549158 1.97745795-0.44690528 2.98991623a4.94364527 4.94364527 0 0 0 0.15028678 1.48309327 3.1243835 3.1243835 0 0 0 0.71583979 1.30907756 3.7848545 3.7848545 0 0 0 1.68083868 0.96499966c0.61696669 0.19774618 1.25766309 0.2966185 1.90231455 0.44295022a18.71861692 18.71861692 0 0 1 7.98497598 4.64702599c2.32549093 2.07633104 4.40182119 4.42555089 6.82223013 6.40300963a38.36664013 38.36664013 0 0 0 23.65435204 7.664627 106.65221881 106.65221881 0 0 0 25.01484329-3.48428092 151.28740053 151.28740053 0 0 0 18.95986743-5.26399346 84.50864482 84.50864482 0 0 0 26.10244574-15.54677482 89.49974871 89.49974871 0 0 1 10.65058817-8.823417c3.46055123-2.17520414 7.41546713-3.61083802 10.85228942-5.68716984 0.31639312-0.18192587 0.62487684-0.38758143 0.90963089-0.61696669s0.52600376-0.5141393 0.69606517-0.8384418a2.46786757 2.46786757 0 0 0 0-1.85485594 4.9831945 4.9831945 0 0 0-0.76725348-1.55823667 11.20823178 11.20823178 0 0 0-1.45540926-1.48309327 23.29445538 23.29445538 0 0 0-13.49417348-4.67471078c-4.94364527-0.37176189-9.71722835 0-14.48685713-0.91358595a94.70046323 94.70046323 0 0 1-13.09868188-3.80462912 95.4993558 95.4993558 0 0 0-13.92130415-3.38540783 91.95179673 91.95179673 0 0 0-33.4902281 0.81866719 97.85253073 97.85253073 0 0 0-29.66187005 11.56812921" fill="#604405" /><path d="M464.37094696 308.09283805a61.40402547 61.40402547 0 0 0-13.24896867 12.08622283 28.60195238 28.60195238 0 0 0-5.24026376 8.79968808 66.56519076 66.56519076 0 0 0-1.70456838 7.90983181 14.71228732 14.71228732 0 0 0-0.44295098 2.98991701c0 0.50227406 0.07514339 1.00059383 0.22147588 1.48309327a3.36958829 3.36958829 0 0 0 0.76725348 1.30907678c0.61301161 0.58532762 1.38817525 0.97686413 2.22661784 1.11133138 0.81471288 0.17401648 1.65315468 0.19774618 2.47182185 0.29661927a23.29445538 23.29445538 0 0 1 10.33024075 4.3978661c3.1164741 2.15147444 5.97983324 4.62329707 9.17144998 6.64821366a47.91776215 47.91776215 0 0 0 23.80068452 6.77081643 106.38328507 106.38328507 0 0 0 24.84082757-2.47182263 111.78965518 111.78965518 0 0 0 19.15761284-5.38659548 114.96940745 114.96940745 0 0 0 26.10244498-15.54677482 109.22291453 109.22291453 0 0 0 10.65058892-8.823417c1.13506108-1.08760169 2.22661783-2.22661783 3.43682231-3.2153472a12.39866163 12.39866163 0 0 1 4.05378899-2.34921985 15.02868044 15.02868044 0 0 1 7.09116385-0.12260279c1.75202777 0.38758143 3.54360478 0.59323777 5.33913686 0.61696748 0.90172073 0.01186446 1.79157701-0.13051217 2.64583835-0.41922129a5.3786861 5.3786861 0 0 0 2.17520414-1.55823666c0.74352457-0.93335982 1.14692553-2.09215058 1.13506106-3.28653552a6.66798826 6.66798826 0 0 0-0.96104459-3.3616789 11.50089598 11.50089598 0 0 0-5.43800994-4.37413642 53.58911167 53.58911167 0 0 0-9.29405198-2.72098251 133.39931602 133.39931602 0 0 1-27.95730169-10.21159305c-4.42159582-2.19893306-8.72058961-4.619342-13.09868111-6.96856183a77.18809493 77.18809493 0 0 0-13.91734984-6.18153374 54.70044306 54.70044306 0 0 0-33.49418318 1.50682297 71.71053652 71.71053652 0 0 0-30.87207375 21.1311157" fill="#F5BD0C" /><path d="M520.13526199 294.5195661c0.5892827 1.92604425 3.68202711 1.60569606 5.46173888 2.47182265 1.77575747 0.86612658 2.81985483 2.47182264 4.57188336 2.62210941s4.30294887-0.59323777 4.52442399-2.25034753c0.2966185-2.19893306-2.91477284-3.61083802-4.94364526-4.3978661a10.559626 10.559626 0 0 0-8.57821299-0.1740165c-0.59719208 0.34407788-1.23788847 1.08760169-1.03618798 1.72829807z m-29.49180788-1.08760168c-2.29780614-0.74352457-6.07870557 3.28653551-4.94364526 5.36286579 0.34803296 0.56950808 1.38422095 1.28534786 2.07633104 0.91358597 0.69211009-0.37176189 1.92604425-2.66956805 3.06505963-3.46055201 0.86612658-0.565553 0.69211009-2.54301096-0.19774541-2.81589975z" fill="#CD8907" /><path d="M857.59637734 771.93724819a43.80860438 43.80860438 0 0 1-7.26518033 12.23650962 79.25651582 79.25651582 0 0 1-25.53689275 18.11351546 506.19760526 506.19760526 0 0 0-47.53017995 25.08998669 195.42426326 195.42426326 0 0 0-28.03244431 22.56675034 224.46916587 224.46916587 0 0 1-22.78822623 20.6881655 65.55273248 65.55273248 0 0 1-28.3765222 12.0110802 68.0245551 68.0245551 0 0 1-36.9033207-5.58434167 44.28714875 44.28714875 0 0 1-20.5378787-16.0688235 48.27370451 48.27370451 0 0 1-5.75835738-25.60808106c0.49436468-15.68519637 2.37294954-31.29129503 5.61202567-46.64427875 2.27012214-12.8257923 4.44928058-25.67926938 5.83350076-38.65534848a398.02274393 398.02274393 0 0 0 0.81866795-71.01051704 53.82640631 53.82640631 0 0 1 0-11.88847741 15.10382384 15.10382384 0 0 1 15.37275834-14.09136555 55.28972497 55.28972497 0 0 1 10.95116251 0.90963089c8.58612236 0.99663875 17.11292164 2.47577772 25.5329369 4.42555089 5.26399347 1.38422095 10.40538413 3.23512104 15.67333269 4.67471077 8.768049 2.5271914 17.93158882 3.36958829 27.01207587 2.47182264a208.99357936 208.99357936 0 0 1 28.96975918-4.54815368c4.02610423 0.13051217 8.00474982 0.8344875 11.83706372 2.07633104a25.22049886 25.22049886 0 0 1 10.63081432 5.93237386 23.27863507 23.27863507 0 0 1 4.9436445 7.90587751c1.65710976 4.34645242 2.67352313 8.91042563 3.01760101 13.54558716 0.13446725 4.13684178 0.4904096 8.26181909 1.06387275 12.3591124a40.340143 40.340143 0 0 0 9.09630659 17.89599466 115.75643555 115.75643555 0 0 0 14.68064824 13.74333257c5.16907545 4.35040749 10.35792475 8.65335637 15.91853671 12.3591124 2.61815435 1.77575747 5.31540715 3.46055123 7.78722903 5.41032518a24.52838877 24.52838877 0 0 1 6.30413652 7.01997631c2.08424043 3.76507988 2.71307236 8.15899169 1.75202777 12.35515731" fill="#F5BD0C" /><path d="M857.59637734 771.93724819a43.80860438 43.80860438 0 0 1-7.26518033 12.23650962 79.25651582 79.25651582 0 0 1-25.53689275 18.11351546 506.19760526 506.19760526 0 0 0-47.53017995 25.08998669 195.42426326 195.42426326 0 0 0-28.03244431 22.56675034 224.46916587 224.46916587 0 0 1-22.78822623 20.6881655 65.55273248 65.55273248 0 0 1-28.3765222 12.0110802 68.0245551 68.0245551 0 0 1-36.9033207-5.58434167 44.28714875 44.28714875 0 0 1-20.5378787-16.0688235 48.27370451 48.27370451 0 0 1-5.75835738-25.60808106c0.49436468-15.68519637 2.37294954-31.29129503 5.61202567-46.64427875 2.27012214-12.8257923 4.44928058-25.67926938 5.83350076-38.65534848a398.02274393 398.02274393 0 0 0 0.81866795-71.01051704 53.82640631 53.82640631 0 0 1 0-11.88847741 15.10382384 15.10382384 0 0 1 15.37275834-14.09136555 55.28972497 55.28972497 0 0 1 10.95116251 0.90963089c8.58612236 0.99663875 17.11292164 2.47577772 25.5329369 4.42555089 5.26399347 1.38422095 10.40538413 3.23512104 15.67333269 4.67471077 8.768049 2.5271914 17.93158882 3.36958829 27.01207587 2.47182264a208.99357936 208.99357936 0 0 1 28.96975918-4.54815368c4.02610423 0.13051217 8.00474982 0.8344875 11.83706372 2.07633104a25.22049886 25.22049886 0 0 1 10.63081432 5.93237386 23.27863507 23.27863507 0 0 1 4.9436445 7.90587751c1.65710976 4.34645242 2.67352313 8.91042563 3.01760101 13.54558716 0.13446725 4.13684178 0.4904096 8.26181909 1.06387275 12.3591124a40.340143 40.340143 0 0 0 9.09630659 17.89599466 115.75643555 115.75643555 0 0 0 14.68064824 13.74333257c5.16907545 4.35040749 10.35792475 8.65335637 15.91853671 12.3591124 2.61815435 1.77575747 5.31540715 3.46055123 7.78722903 5.41032518a24.52838877 24.52838877 0 0 1 6.30413652 7.01997631c2.08424043 3.76507988 2.71307236 8.15899169 1.75202777 12.35515731M319.6763913 640.56284874a23.46451678 23.46451678 0 0 1 13.17382527-1.21415877 32.52522921 32.52522921 0 0 1 12.3591124 5.21653407 77.71409869 77.71409869 0 0 1 18.11746976 19.54914934c12.0624939 16.60669249 23.65435281 33.56141719 34.18629405 51.16474843 8.5267985 14.28515664 16.36148769 29.04490259 26.22504775 42.46393267 6.42673853 8.75222869 13.69191889 16.88353638 20.17007113 25.60808106a88.25395008 88.25395008 0 0 1 15.08009491 28.69687039c3.7571705 13.77101736 2.25825691 28.44771053-4.2040758 41.17858481a54.34054561 54.34054561 0 0 1-20.07119879 21.52660729 51.69866157 51.69866157 0 0 1-28.42398082 7.41546791 139.3751942 139.3751942 0 0 1-45.06231317-14.21396834c-29.88334517-11.91220711-62.36111497-15.64169283-93.15804533-24.91201513-9.46806847-2.84358453-18.78585094-6.22899235-28.30137881-8.85110255a83.7057964 83.7057964 0 0 1-12.53312889-4.00237452 21.68875932 21.68875932 0 0 1-9.88728976-8.3053234 18.78585094 18.78585094 0 0 1-2.47182263-9.88729053c0.11469262-3.38145352 0.79098318-6.72731212 2.00118765-9.88728977 2.32153585-6.37927914 6.05497664-12.16136698 8.57821298-18.46550275a77.51635328 77.51635328 0 0 0 4.2989938-32.72297461c-0.54577838-11.07771961-2.47182264-22.04865674-3.11647411-33.12242128-0.48645453-4.94364527-0.32825835-9.926839 0.47063499-14.83093503a22.25035723 22.25035723 0 0 1 18.71070754-19.03501004 60.43111642 60.43111642 0 0 1 13.64446026-0.86612735 129.60259629 129.60259629 0 0 0 13.69191888 0 31.3506189 31.3506189 0 0 0 13.07495217-3.65829663 30.98281208 30.98281208 0 0 0 9.39292509-8.87087717 107.66467787 107.66467787 0 0 0 6.72335781-11.12517823 71.00260612 71.00260612 0 0 1 7.07138923-10.89974883 26.93297816 26.93297816 0 0 1 10.18390904-7.90983181" fill="#F5BD0C" /><path d="M319.6763913 640.56284874a23.46451678 23.46451678 0 0 1 13.17382527-1.21415877 32.52522921 32.52522921 0 0 1 12.3591124 5.21653407 77.71409869 77.71409869 0 0 1 18.11746976 19.54914934c12.0624939 16.60669249 23.65435281 33.56141719 34.18629405 51.16474843 8.5267985 14.28515664 16.36148769 29.04490259 26.22504775 42.46393267 6.42673853 8.75222869 13.69191889 16.88353638 20.17007113 25.60808106a88.25395008 88.25395008 0 0 1 15.08009491 28.69687039c3.7571705 13.77101736 2.25825691 28.44771053-4.2040758 41.17858481a54.34054561 54.34054561 0 0 1-20.07119879 21.52660729 51.69866157 51.69866157 0 0 1-28.42398082 7.41546791 139.3751942 139.3751942 0 0 1-45.06231317-14.21396834c-29.88334517-11.91220711-62.36111497-15.64169283-93.15804533-24.91201513-9.46806847-2.84358453-18.78585094-6.22899235-28.30137881-8.85110255a83.7057964 83.7057964 0 0 1-12.53312889-4.00237452 21.68875932 21.68875932 0 0 1-9.88728976-8.3053234 18.78585094 18.78585094 0 0 1-2.47182263-9.88729053c0.11469262-3.38145352 0.79098318-6.72731212 2.00118765-9.88728977 2.32153585-6.37927914 6.05497664-12.16136698 8.57821298-18.46550275a77.51635328 77.51635328 0 0 0 4.2989938-32.72297461c-0.54577838-11.07771961-2.47182264-22.04865674-3.11647411-33.12242128-0.48645453-4.94364527-0.32825835-9.926839 0.47063499-14.83093503a22.25035723 22.25035723 0 0 1 18.71070754-19.03501004 60.43111642 60.43111642 0 0 1 13.64446026-0.86612735 129.60259629 129.60259629 0 0 0 13.69191888 0 31.3506189 31.3506189 0 0 0 13.07495217-3.65829663 30.98281208 30.98281208 0 0 0 9.39292509-8.87087717 107.66467787 107.66467787 0 0 0 6.72335781-11.12517823 71.00260612 71.00260612 0 0 1 7.07138923-10.89974883 26.93297816 26.93297816 0 0 1 10.18390904-7.90983181" fill="#F5BD0C" /><path d="M326.20200216 647.80430015a20.22544066 20.22544066 0 0 1 11.93989188-0.79098317 27.99685015 27.99685015 0 0 1 10.80087495 5.28772239 68.30139899 68.30139899 0 0 1 15.09986953 18.76212201c10.25905165 16.61064681 20.26894421 33.37158116 29.66187006 50.50032157a334.55425189 334.55425189 0 0 0 22.81591024 37.89205007c5.83350077 7.85446303 12.50544411 15.05241014 18.46154766 22.81195515a77.03780814 77.03780814 0 0 1 13.91734906 25.63181076 50.50032234 50.50032234 0 0 1-3.85604281 36.72930421A48.9381306 48.9381306 0 0 1 426.50658167 864.00373677a47.68046674 47.68046674 0 0 1-26.02730236 6.42673854 145.61209594 145.61209594 0 0 1-41.25372819-12.77437861c-26.07476097-9.47202355-54.37613977-10.72968742-81.07182252-18.12142484-9.59067126-2.59047035-18.93218265-6.07870557-28.57426838-8.49911451a86.98442176 86.98442176 0 0 1-12.6557309-3.65829739 20.51414901 20.51414901 0 0 1-10.06130625-8.1589917 17.85644543 17.85644543 0 0 1-2.17520413-9.44038448 29.50367312 29.50367312 0 0 1 2.10006074-9.54321186c2.32153585-6.10639034 5.97983324-11.63931753 8.3290531-17.74570788a68.45959516 68.45959516 0 0 0 3.33794921-29.24264877c-0.66442609-9.88333468-2.47182264-19.64802243-2.96618732-29.51158327a50.40935864 50.40935864 0 0 1 0.59323778-13.20150928 22.66166837 22.66166837 0 0 1 5.93237386-11.6393183 23.08879981 23.08879981 0 0 1 12.85347706-5.95610278 59.54126015 59.54126015 0 0 1 14.33657036 0c4.7656737 0.57741746 9.56298649 0.80284764 14.36029927 0.66442531a26.93297816 26.93297816 0 0 0 13.59700164-4.148707 27.1781822 27.1781822 0 0 0 8.38046679-9.88728977c1.9418638-3.86395297 3.64247786-7.83864349 5.09393206-11.91616141a56.37337235 56.37337235 0 0 1 5.73462768-11.64327261 22.45205772 22.45205772 0 0 1 9.88728975-8.34882772" fill="#F5BD0C" /></svg>