<?xml version="1.0" standalone="no"?><!DOCTYPE svg PUBLIC "-//W3C//DTD SVG 1.1//EN" "http://www.w3.org/Graphics/SVG/1.1/DTD/svg11.dtd"><svg class="icon" width="180px" height="109.32px" viewBox="0 0 1686 1024" version="1.1" xmlns="http://www.w3.org/2000/svg"><path fill="#13227a" d="M528.564706 887.988706h695.055059v-56.621177H528.504471v56.621177z m-263.710118 41.08047c-39.755294 0-71.920941-31.442824-71.920941-70.294588 0-38.791529 32.165647-70.234353 71.920941-70.234353 39.634824 0 71.860706 31.442824 71.860706 70.234353 0 38.851765-32.225882 70.294588-71.860706 70.294588z m1196.875294-195.162352a54.211765 54.211765 0 0 0-54.814117-53.488942H58.849882a54.211765 54.211765 0 0 0-54.814117 53.549177v248.350117a54.211765 54.211765 0 0 0 54.814117 53.609412h1348.065883a54.211765 54.211765 0 0 0 54.814117-53.609412v-248.350117zM528.564706 443.632941h695.055059v-56.621176H528.504471v56.621176z m-263.710118 41.080471c-39.755294 0-71.920941-31.503059-71.920941-70.294588S225.099294 344.184471 264.854588 344.184471c39.634824 0 71.860706 31.442824 71.860706 70.234353 0 38.791529-32.225882 70.294588-71.860706 70.294588z m1196.875294-195.162353a54.211765 54.211765 0 0 0-54.814117-53.488941H58.849882a54.211765 54.211765 0 0 0-54.814117 53.549176V537.901176a54.211765 54.211765 0 0 0 54.814117 53.609412h1348.065883a54.211765 54.211765 0 0 0 54.814117-53.609412V289.611294z"  /><path fill="#13227a" d="M1628.762353 13.854118H455.439059A54.512941 54.512941 0 0 0 401.588706 69.029647v87.461647c0 30.418824 24.033882 55.115294 53.669647 55.17553l971.233882 2.891294a54.512941 54.512941 0 0 1 53.609412 55.175529c0 30.479059 24.154353 55.175529 53.910588 55.175529h94.750118c29.756235 0 53.850353-24.696471 53.850353-55.175529V69.029647c0-30.479059-24.094118-55.175529-53.850353-55.175529M1552.926118 724.811294h82.642823c25.961412 0 46.983529-23.732706 46.98353-53.067294V422.430118c0-29.334588-21.022118-53.067294-46.98353-53.067294h-82.642823c-26.021647 0-46.983529 23.732706-46.98353 53.067294v249.313882c0 29.334588 20.961882 53.067294 46.98353 53.067294"  /></svg>