<?xml version="1.0" standalone="no"?><!DOCTYPE svg PUBLIC "-//W3C//DTD SVG 1.1//EN" "http://www.w3.org/Graphics/SVG/1.1/DTD/svg11.dtd"><svg class="icon" width="200px" height="200.00px" viewBox="0 0 1024 1024" version="1.1" xmlns="http://www.w3.org/2000/svg"><path d="M682.666667 320v597.333333H213.333333c-46.933333 0-85.333333-38.4-85.333333-85.333333V320h554.666667z" fill="#FF5722" /><path d="M298.666667 106.666667v725.333333c0 46.933333-38.4 85.333333-85.333334 85.333333h618.666667c46.933333 0 85.333333-38.4 85.333333-85.333333V106.666667H298.666667z" fill="#FFCCBC" /><path d="M426.666667 213.333333h384v85.333334H426.666667zM426.666667 362.666667h170.666666v42.666666h-170.666666zM640 362.666667h170.666667v42.666666h-170.666667zM426.666667 448h170.666666v42.666667h-170.666666zM640 448h170.666667v42.666667h-170.666667zM426.666667 533.333333h170.666666v42.666667h-170.666666zM640 533.333333h170.666667v42.666667h-170.666667zM426.666667 618.666667h170.666666v42.666666h-170.666666zM640 618.666667h170.666667v42.666666h-170.666667zM426.666667 704h170.666666v42.666667h-170.666666zM640 704h170.666667v42.666667h-170.666667zM426.666667 789.333333h170.666666v42.666667h-170.666666zM640 789.333333h170.666667v42.666667h-170.666667z" fill="#FF5722" /></svg>