<?xml version="1.0" standalone="no"?><!DOCTYPE svg PUBLIC "-//W3C//DTD SVG 1.1//EN" "http://www.w3.org/Graphics/SVG/1.1/DTD/svg11.dtd"><svg class="icon" width="180px" height="180.00px" viewBox="0 0 1024 1024" version="1.1" xmlns="http://www.w3.org/2000/svg"><path fill="#f4ea2a" d="M176 883.2c-7.466667 7.466667-17.066667 9.6-26.666667 5.333333-9.6-4.266667-14.933333-12.8-14.933333-22.4 0-9.6 6.4-19.2 14.933333-22.4 9.6-4.266667 19.2-2.133333 26.666667 5.333334 9.6 8.533333 9.6 24.533333 0 34.133333z m753.066667-702.933333L842.666667 266.666667l-68.266667-18.133334L757.333333 181.333333l86.4-86.4c-51.2-19.2-108.8-7.466667-149.333333 28.8-40.533333 37.333333-56.533333 92.8-42.666667 146.133334l-544 544C88.533333 832 81.066667 859.733333 87.466667 885.333333c6.4 25.6 26.666667 45.866667 52.266666 52.266667 25.6 6.4 52.266667-1.066667 71.466667-20.266667l544-544c53.333333 13.866667 108.8-2.133333 146.133333-42.666666 36.266667-40.533333 48-99.2 27.733334-150.4z"  /><path fill="#f4ea2a" d="M924.8 813.866667L649.6 538.666667 538.666667 649.6l266.666666 266.666667 9.6 9.6 1.066667-1.066667c30.933333 22.4 73.6 18.133333 100.266667-8.533333 26.666667-27.733333 29.866667-70.4 8.533333-102.4zM241.066667 211.2l1.066666-1.066667-27.733333-51.2L122.666667 85.333333 85.333333 122.666667l73.6 91.733333 51.2 27.733333 1.066667-1.066666 203.733333 203.733333 29.866667-29.866667z"  /></svg>