<?xml version="1.0" standalone="no"?><!DOCTYPE svg PUBLIC "-//W3C//DTD SVG 1.1//EN" "http://www.w3.org/Graphics/SVG/1.1/DTD/svg11.dtd"><svg class="icon" width="200px" height="200.00px" viewBox="0 0 1024 1024" version="1.1" xmlns="http://www.w3.org/2000/svg"><path d="M1024 301.164v421.672c0 75.278-61.03 136.308-136.308 136.308H136.308C61.03 859.144 0 798.114 0 722.836V301.164c0-75.278 61.03-136.308 136.308-136.308h751.386c75.276 0 136.306 61.03 136.306 136.308z" fill="#D32E2A" /><path d="M136.308 807.424c-46.64 0-84.588-37.946-84.588-84.588V301.164c0-46.64 37.946-84.588 84.588-84.588h751.386c46.64 0 84.588 37.946 84.588 84.588v421.672c0 46.64-37.946 84.588-84.588 84.588H136.308z" fill="#F14336" /><path d="M663.978 513.94l-262.012 151.28V362.66z" fill="#F2F2F2" /></svg>